<?xml version="1.0" encoding="UTF-8" standalone="no"?>
<svg
   version="1.1"
   width="374"
   height="414"
   style="clip-rule:evenodd;fill-rule:evenodd;image-rendering:optimizeQuality;shape-rendering:geometricPrecision;text-rendering:geometricPrecision"
   id="svg88"
   sodipodi:docname="logo.svg"
   inkscape:export-filename="logo.png"
   inkscape:export-xdpi="73.27536"
   inkscape:export-ydpi="73.27536"
   inkscape:version="1.3.2 (091e20e, 2023-11-25, custom)"
   xmlns:inkscape="http://www.inkscape.org/namespaces/inkscape"
   xmlns:sodipodi="http://sodipodi.sourceforge.net/DTD/sodipodi-0.dtd"
   xmlns="http://www.w3.org/2000/svg"
   xmlns:svg="http://www.w3.org/2000/svg">
  <sodipodi:namedview
     id="namedview1"
     pagecolor="#ffffff"
     bordercolor="#000000"
     borderopacity="0.25"
     inkscape:showpageshadow="2"
     inkscape:pageopacity="0.0"
     inkscape:pagecheckerboard="0"
     inkscape:deskcolor="#d1d1d1"
     inkscape:zoom="1.8768116"
     inkscape:cx="186.7529"
     inkscape:cy="207"
     inkscape:window-width="1920"
     inkscape:window-height="991"
     inkscape:window-x="-9"
     inkscape:window-y="-9"
     inkscape:window-maximized="1"
     inkscape:current-layer="svg88" />
  <defs
     id="defs88" />
  <g
     id="g1"
     transform="translate(-56.5,-59.5)">
    <path
       style="opacity:0.995"
       fill="#080808"
       d="m 374.5,59.5 c 2.685,3.6831 6.018,6.6831 10,9 5.963,4.6281 11.63,9.6281 17,15 2,4 5,7 9,9 7.149,5.6495 13.816,11.816 20,18.5 -18.759,20.603 -27.426,44.937 -26,73 -0.04,8.539 0.46,17.039 1.5,25.5 5.41,27.716 11.077,55.383 17,83 1.632,7.922 2.465,15.922 2.5,24 -0.739,-0.131 -1.406,0.036 -2,0.5 1.333,3.333 1.333,6.667 0,10 0.594,0.464 1.261,0.631 2,0.5 -1.803,43.261 -21.47,75.428 -59,96.5 -8.001,4.444 -16.335,8.111 -25,11 -20.672,5.335 -41.338,10.668 -62,16 -4.667,2.333 -9.333,4.667 -14,7 -7.219,5.395 -14.553,10.562 -22,15.5 -7.447,-4.938 -14.781,-10.105 -22,-15.5 -6.789,-3.729 -13.789,-6.896 -21,-9.5 -0.12,-1.086 -0.787,-1.753 -2,-2 -19.377,-4.678 -38.711,-9.345 -58,-14 -49.4943,-17.503 -75.8276,-52.503 -79,-105 0.7389,0.131 1.4056,-0.036 2,-0.5 -1.3333,-3.333 -1.3333,-6.667 0,-10 -0.5944,-0.464 -1.2611,-0.631 -2,-0.5 0.0348,-8.078 0.8681,-16.078 2.5,-24 7.3905,-31.785 13.5572,-63.785 18.5,-96 0.7216,-0.418 1.2216,-1.084 1.5,-2 0.6667,-7.667 0.6667,-15.333 0,-23 -0.3826,-0.556 -0.8826,-0.889 -1.5,-1 0,-1 0,-2 0,-3 0.7389,0.131 1.4056,-0.036 2,-0.5 -1.8973,-7.346 -3.8973,-15.013 -6,-23 -0.3361,-1.03 -1.0028,-1.53 -2,-1.5 C 71.4803,130.962 64.8136,120.462 56.5,111 74.6068,93.031 93.4402,75.8643 113,59.5 c 42.403,22.5962 85.903,24.9296 130.5,7 44.774,17.916 88.441,15.5827 131,-7 z"
       id="path1" />
  </g>
  <g
     id="g2"
     transform="translate(-56.5,-59.5)">
    <path
       style="opacity:0.749"
       fill="#434343"
       d="m 374.5,59.5 c 3.956,2.2881 7.289,5.2881 10,9 -3.982,-2.3169 -7.315,-5.3169 -10,-9 z"
       id="path2" />
  </g>
  <g
     id="g3"
     transform="translate(-56.5,-59.5)">
    <path
       style="opacity:1"
       fill="#f5f6f4"
       d="m 384.5,220.5 c -6.26,-27.958 -5.093,-55.624 3.5,-83 3.386,-8.441 7.553,-16.441 12.5,-24 -9.625,-9.469 -19.625,-18.4688 -30,-27 -30.752,13.3102 -62.752,17.477 -96,12.5 -10.548,-2.0538 -20.882,-4.8871 -31,-8.5 -25.557,9.2233 -51.891,12.39 -79,9.5 -8.13,-1.0325 -16.13,-2.6992 -24,-5 -8.382,-2.9065 -16.715,-5.5732 -25,-8 -10.142,8.3084 -19.8086,17.142 -29,26.5 16.491,25.94 22.991,54.273 19.5,85 -0.852,7.402 -2.019,14.735 -3.5,22 -3.6667,0 -7.3333,0 -11,0 3.2182,-20.599 3.7182,-41.265 1.5,-62 -3.4395,-17.041 -10.2728,-32.541 -20.5,-46.5 13.7847,-13.2813 27.785,-26.4479 42,-39.5 31.628,16.1214 64.961,20.9548 100,14.5 9.9,-2.0581 19.567,-4.8914 29,-8.5 31.592,12.2042 63.925,14.3709 97,6.5 11.424,-3.2294 22.424,-7.2294 33,-12 13.699,13.3674 27.699,26.3674 42,39 -16.55,21.002 -24.217,45.002 -23,72 0.135,12.243 1.135,24.41 3,36.5 -3.667,0 -7.333,0 -11,0 z"
       id="path3" />
  </g>
  <g
     id="g4"
     transform="translate(-56.5,-59.5)">
    <path
       style="opacity:1"
       fill="#97c459"
       d="m 384.5,220.5 c -14.667,0 -29.333,0 -44,0 -6.971,-29.739 -23.971,-51.905 -51,-66.5 -43.443,-18.777 -81.943,-11.61 -115.5,21.5 -11.723,12.78 -19.223,27.78 -22.5,45 -16.333,0 -32.667,0 -49,0 1.481,-7.265 2.648,-14.598 3.5,-22 3.491,-30.727 -3.009,-59.06 -19.5,-85 9.1914,-9.358 18.858,-18.1916 29,-26.5 8.285,2.4268 16.618,5.0935 25,8 7.87,2.3008 15.87,3.9675 24,5 27.109,2.89 53.443,-0.2767 79,-9.5 10.118,3.6129 20.452,6.4462 31,8.5 33.248,4.977 65.248,0.8102 96,-12.5 10.375,8.5312 20.375,17.531 30,27 -4.947,7.559 -9.114,15.559 -12.5,24 -8.593,27.376 -9.76,55.042 -3.5,83 z"
       id="path4" />
  </g>
  <g
     id="g5"
     transform="translate(-56.5,-59.5)">
    <path
       style="opacity:0.247"
       fill="#3e3e3e"
       d="m 401.5,83.5 c 3.333,2.6667 6.333,5.6667 9,9 -4,-2 -7,-5 -9,-9 z"
       id="path5" />
  </g>
  <g
     id="g6"
     transform="translate(-56.5,-59.5)">
    <path
       style="opacity:1"
       fill="#0d0e0b"
       d="m 245.5,107.5 c 5.734,0.082 11.401,0.748 17,2 1.667,3.333 3.333,6.667 5,10 -0.907,2.921 -1.24,5.921 -1,9 -1,0 -2,0 -3,0 0.228,4.515 -0.438,8.848 -2,13 -5.333,-0.433 -10.666,-0.933 -16,-1.5 -4.223,-4.112 -6.223,-9.112 -6,-15 -0.015,-5.415 0.985,-10.582 3,-15.5 1.679,0.215 2.679,-0.452 3,-2 z"
       id="path6" />
  </g>
  <g
     id="g7"
     transform="translate(-56.5,-59.5)">
    <path
       style="opacity:1"
       fill="#0c0d0a"
       d="m 221.5,109.5 c 5.058,-0.783 8.558,1.217 10.5,6 0.843,6.403 2.01,12.737 3.5,19 -0.169,2.339 -0.836,4.506 -2,6.5 -4.885,0.564 -9.718,1.397 -14.5,2.5 -6.011,-2.916 -8.178,-7.583 -6.5,-14 -1.958,-4.434 -3.291,-9.101 -4,-14 1.353,-1.024 2.02,-2.357 2,-4 3.887,-0.146 7.554,-0.813 11,-2 z"
       id="path7" />
  </g>
  <g
     id="g8"
     transform="translate(-56.5,-59.5)">
    <path
       style="opacity:1"
       fill="#dbddd8"
       d="m 246.5,109.5 c 4.014,-0.166 8.014,0.001 12,0.5 5.186,4.168 5.853,8.835 2,14 -4.682,-0.464 -9.349,-0.297 -14,0.5 0.54,1.248 1.207,2.415 2,3.5 3.722,0.238 7.389,0.738 11,1.5 0.333,0.333 0.667,0.667 1,1 -0.763,1.219 -1.763,2.219 -3,3 -7.455,2.855 -12.955,0.855 -16.5,-6 0.105,-3.962 0.439,-7.962 1,-12 1.741,-1.896 3.241,-3.896 4.5,-6 z"
       id="path8" />
  </g>
  <g
     id="g9"
     transform="translate(-56.5,-59.5)">
    <path
       style="opacity:1"
       fill="#dbddd8"
       d="m 219.5,111.5 c 3.821,-0.397 6.821,0.936 9,4 -3.876,1.543 -7.876,2.876 -12,4 4.439,-0.649 8.772,0.018 13,2 0.438,3.572 1.104,7.072 2,10.5 -1.439,0.991 -2.439,2.324 -3,4 -3,0.5 -6,1 -9,1.5 -2.035,-0.704 -4.035,-1.371 -6,-2 -0.17,-1.322 0.163,-2.489 1,-3.5 3.67,-0.548 7.337,-1.048 11,-1.5 0,-1.667 0,-3.333 0,-5 -3.376,0.452 -6.709,1.118 -10,2 -0.886,-0.825 -1.219,-1.825 -1,-3 -1,0 -2,0 -3,0 0.12,-2.234 -0.213,-4.401 -1,-6.5 1.081,-1.371 1.915,-2.871 2.5,-4.5 2.277,-0.617 4.444,-1.284 6.5,-2 z"
       id="path9" />
  </g>
  <g
     id="g10"
     transform="translate(-56.5,-59.5)">
    <path
       style="opacity:1"
       fill="#171717"
       d="m 249.5,115.5 c 3.307,-0.437 6.307,0.23 9,2 -0.167,0.333 -0.333,0.667 -0.5,1 -3.076,-0.788 -6.242,-1.288 -9.5,-1.5 0.556,-0.383 0.889,-0.883 1,-1.5 z"
       id="path10" />
  </g>
  <g
     id="g11"
     transform="translate(-56.5,-59.5)">
    <path
       style="opacity:1"
       fill="#0e0f0b"
       d="m 277.5,111.5 c 6.782,1.928 13.449,4.261 20,7 1.351,5.463 1.018,10.796 -1,16 -2.427,-0.023 -4.76,-0.523 -7,-1.5 -0.466,-2.123 -1.633,-3.623 -3.5,-4.5 -1.587,1.17 -3.253,2.17 -5,3 -1.163,4.992 -3.329,9.326 -6.5,13 -5.332,-1.204 -7.165,-4.537 -5.5,-10 3.139,-7.587 5.972,-15.253 8.5,-23 z"
       id="path11" />
  </g>
  <g
     id="g12"
     transform="translate(-56.5,-59.5)">
    <path
       style="opacity:1"
       fill="#dddfdb"
       d="m 279.5,113.5 c 2.568,0.094 4.068,1.428 4.5,4 0.667,-0.667 1.333,-1.333 2,-2 2.761,1.296 5.595,2.463 8.5,3.5 1.141,0.741 1.141,1.575 0,2.5 2.179,1.783 2.179,3.783 0,6 -0.891,1.09 -1.891,1.09 -3,0 -0.929,-1.189 -1.262,-2.522 -1,-4 -2.177,-0.086 -4.177,-0.753 -6,-2 -1.2,1.031 -2.534,1.865 -4,2.5 -2.373,4.244 -4.039,8.744 -5,13.5 -2.448,0.49 -4.115,-0.343 -5,-2.5 2.715,-7.318 5.715,-14.484 9,-21.5 z"
       id="path12" />
  </g>
  <g
     id="g13"
     transform="translate(-56.5,-59.5)">
    <path
       style="opacity:1"
       fill="#0d0e0a"
       d="m 192.5,118.5 c 3.729,1.951 7.229,4.284 10.5,7 1.453,6.099 3.619,12.099 6.5,18 -0.525,0.692 -1.192,1.192 -2,1.5 1.333,1 1.333,2 0,3 -4.714,1.774 -9.214,3.941 -13.5,6.5 -3.323,-1.984 -6.657,-3.984 -10,-6 -2.644,-5.121 -5.144,-10.288 -7.5,-15.5 0.847,-2.718 1.847,-5.384 3,-8 4.425,-2.213 8.759,-4.379 13,-6.5 z"
       id="path13" />
  </g>
  <g
     id="g14"
     transform="translate(-56.5,-59.5)">
    <path
       style="opacity:1"
       fill="#dfe1dd"
       d="m 189.5,121.5 c 4.82,0.66 8.487,2.993 11,7 -0.515,1.725 -1.182,3.392 -2,5 -3.827,1.746 -7.493,3.746 -11,6 1.333,1 2.667,2 4,3 3.298,-1.66 6.631,-3.327 10,-5 1,0.333 1.667,1 2,2 -0.574,1.559 -1.24,3.059 -2,4.5 -3.106,1.636 -6.273,3.136 -9.5,4.5 -3.07,-0.576 -5.737,-1.909 -8,-4 -1.706,-3.579 -3.539,-7.079 -5.5,-10.5 1.835,-0.928 2.168,-2.094 1,-3.5 0.525,-0.692 1.192,-1.192 2,-1.5 -0.951,-0.718 -1.117,-1.551 -0.5,-2.5 2.979,-1.567 5.812,-3.234 8.5,-5 z"
       id="path14" />
  </g>
  <g
     id="g15"
     transform="translate(-56.5,-59.5)">
    <path
       style="opacity:1"
       fill="#0c0d0a"
       d="m 152.5,127.5 c 4.567,0.244 8.901,1.41 13,3.5 4.035,3.7 7.702,7.7 11,12 -0.674,1.751 -1.007,3.417 -1,5 2.589,1.197 5.256,2.197 8,3 1.546,2.257 3.212,4.424 5,6.5 -1.148,1.649 -2.481,3.149 -4,4.5 -5.051,-0.011 -10.051,-0.345 -15,-1 2.569,2.479 4.902,5.146 7,8 -2.259,1.715 -4.426,3.548 -6.5,5.5 -3.55,-1.541 -6.55,-3.874 -9,-7 -7.688,-8.854 -15.188,-17.854 -22.5,-27 4.74,-4.35 9.407,-8.683 14,-13 z"
       id="path15" />
  </g>
  <g
     id="g16"
     transform="translate(-56.5,-59.5)">
    <path
       style="opacity:1"
       fill="#171717"
       d="m 193.5,126.5 c 1.276,0.886 1.276,1.886 0,3 -2.415,0.805 -4.749,1.805 -7,3 -0.333,-0.333 -0.667,-0.667 -1,-1 2.731,-1.692 5.398,-3.358 8,-5 z"
       id="path16" />
  </g>
  <g
     id="g17"
     transform="translate(-56.5,-59.5)">
    <path
       style="opacity:1"
       fill="#e0e2de"
       d="m 153.5,129.5 c 1.182,1.6 2.515,1.933 4,1 5.253,2.251 9.253,5.918 12,11 -0.223,1.467 -0.556,2.967 -1,4.5 0.749,1.734 1.249,3.567 1.5,5.5 2.867,-0.066 5.7,-0.066 8.5,0 3.664,2.554 3.664,4.887 0,7 -2.174,-1.363 -4.341,-1.697 -6.5,-1 -0.928,-1.835 -2.094,-2.168 -3.5,-1 -1.956,-1.048 -3.956,-1.548 -6,-1.5 -1.017,1.049 -1.184,2.216 -0.5,3.5 2.872,2.537 5.372,5.37 7.5,8.5 -0.854,1.022 -1.854,1.855 -3,2.5 -9.249,-8.745 -17.582,-18.245 -25,-28.5 3.83,-3.997 7.83,-7.83 12,-11.5 z"
       id="path17" />
  </g>
  <g
     id="g18"
     transform="translate(-56.5,-59.5)">
    <path
       style="opacity:1"
       fill="#080808"
       d="m 154.5,136.5 c 6.421,-0.063 9.254,3.27 8.5,10 -1.719,2.057 -3.719,3.724 -6,5 -2.994,-2.828 -5.827,-5.828 -8.5,-9 2.327,-1.661 4.327,-3.661 6,-6 z"
       id="path18" />
  </g>
  <g
     id="g19"
     transform="translate(-56.5,-59.5)">
    <path
       style="opacity:1"
       fill="#0a0b08"
       d="m 309.5,123.5 c 1.892,1.202 3.726,2.535 5.5,4 0.366,3.588 -0.134,7.088 -1.5,10.5 0.333,0.833 0.667,1.667 1,2.5 1.697,-0.864 2.863,-2.197 3.5,-4 0.718,0.951 1.551,1.117 2.5,0.5 0.711,-1.255 1.544,-2.421 2.5,-3.5 2.67,1.505 4.836,3.505 6.5,6 -1.101,4.274 -3.268,7.941 -6.5,11 -0.414,-0.457 -0.914,-0.791 -1.5,-1 -0.98,1.481 -2.147,2.815 -3.5,4 -0.414,-0.457 -0.914,-0.791 -1.5,-1 -0.98,1.481 -2.147,2.815 -3.5,4 -0.333,-0.333 -0.667,-0.667 -1,-1 -2.026,2.787 -4.36,4.453 -7,5 -2.67,-1.505 -4.836,-3.505 -6.5,-6 2.064,-7.949 3.897,-15.949 5.5,-24 1.842,-2.364 3.675,-4.697 5.5,-7 z"
       id="path19" />
  </g>
  <g
     id="g20"
     transform="translate(-56.5,-59.5)">
    <path
       style="opacity:1"
       fill="#dadcd7"
       d="m 308.5,126.5 c 5.594,0.744 6.261,2.911 2,6.5 0,2.333 0,4.667 0,7 -3.104,2.273 -3.271,4.44 -0.5,6.5 4.313,-3.685 8.813,-7.018 13.5,-10 1.502,0.583 2.835,1.416 4,2.5 -1.519,1.351 -2.852,2.851 -4,4.5 -0.586,-0.209 -1.086,-0.543 -1.5,-1 -0.956,1.079 -1.789,2.245 -2.5,3.5 -0.949,0.617 -1.782,0.451 -2.5,-0.5 -0.956,1.079 -1.789,2.245 -2.5,3.5 -0.949,0.617 -1.782,0.451 -2.5,-0.5 -0.956,1.079 -1.789,2.245 -2.5,3.5 -0.949,0.617 -1.782,0.451 -2.5,-0.5 -1.154,2.457 -2.488,2.457 -4,0 -0.273,-1.601 -0.773,-3.101 -1.5,-4.5 2.547,-1.316 3.213,-3.149 2,-5.5 2.481,-4.991 4.148,-9.991 5,-15 z"
       id="path20" />
  </g>
  <g
     id="g21"
     transform="translate(-56.5,-59.5)">
    <path
       style="opacity:1"
       fill="#485b2b"
       d="m 340.5,220.5 c 0.538,1.617 0.871,3.284 1,5 18.679,-0.333 37.345,0 56,1 2.811,12.3 5.478,24.634 8,37 -22.323,1 -44.657,1.333 -67,1 -0.129,1.716 -0.462,3.383 -1,5 -16.414,41.463 -46.914,63.463 -91.5,66 -36.633,-1.645 -64.633,-17.978 -84,-49 -2.625,-6.243 -5.458,-12.243 -8.5,-18 0.079,-1.43 -0.254,-2.764 -1,-4 -23.324,-1 -46.657,-1.333 -70,-1 1.967,-12.695 4.6337,-25.195 8,-37.5 19.667,-0.333 39.333,-0.667 59,-1 1.082,-1.33 1.749,-2.83 2,-4.5 3.277,-17.22 10.777,-32.22 22.5,-45 33.557,-33.11 72.057,-40.277 115.5,-21.5 27.029,14.595 44.029,36.761 51,66.5 z"
       id="path21" />
  </g>
  <g
     id="g22"
     transform="translate(-56.5,-59.5)">
    <path
       style="opacity:1"
       fill="#97c459"
       d="m 235.5,151.5 c 48.303,-1.807 80.469,19.86 96.5,65 7.943,41.541 -5.224,74.374 -39.5,98.5 -35.912,18.61 -70.245,16.277 -103,-7 -32.724,-31.284 -40.224,-67.784 -22.5,-109.5 15.431,-26.619 38.264,-42.285 68.5,-47 z"
       id="path22" />
  </g>
  <g
     id="g23"
     transform="translate(-56.5,-59.5)">
    <path
       style="opacity:1"
       fill="#0c0e0a"
       d="m 335.5,148.5 c 2.027,-0.162 4.027,0.005 6,0.5 3.717,4.612 7.05,9.445 10,14.5 -0.868,2.566 -1.868,5.066 -3,7.5 -6.428,4.961 -12.928,9.794 -19.5,14.5 -5.378,-5.546 -10.211,-11.546 -14.5,-18 0.932,-3.03 2.265,-5.863 4,-8.5 2.923,-2.045 5.757,-4.212 8.5,-6.5 1.049,1.017 2.216,1.184 3.5,0.5 1.74,-1.517 3.406,-3.017 5,-4.5 z"
       id="path23" />
  </g>
  <g
     id="g24"
     transform="translate(-56.5,-59.5)">
    <path
       style="opacity:1"
       fill="#dfe1dd"
       d="m 335.5,150.5 c 1.586,0.913 3.086,0.913 4.5,0 3.167,3.833 6.333,7.667 9.5,11.5 -0.667,0.667 -1.333,1.333 -2,2 1.333,1 1.333,2 0,3 -5.5,4.167 -11,8.333 -16.5,12.5 -3.642,-5.142 -7.475,-10.142 -11.5,-15 0.654,-1.615 1.154,-3.282 1.5,-5 1.973,-1.14 3.807,-2.473 5.5,-4 2.59,0.364 5.257,0.531 8,0.5 2.174,3.004 4.508,5.837 7,8.5 1.021,-0.502 1.188,-1.168 0.5,-2 -2.692,-3.192 -5.192,-6.525 -7.5,-10 0.363,-0.683 0.696,-1.35 1,-2 z"
       id="path24" />
  </g>
  <g
     id="g25"
     transform="translate(-56.5,-59.5)">
    <path
       style="opacity:0.498"
       fill="#343434"
       d="m 76.5,142.5 c 0.9972,-0.03 1.6639,0.47 2,1.5 2.1027,7.987 4.1027,15.654 6,23 -0.5944,0.464 -1.2611,0.631 -2,0.5 -1.2369,-8.518 -3.2369,-16.852 -6,-25 z"
       id="path25" />
  </g>
  <g
     id="g26"
     transform="translate(-56.5,-59.5)">
    <path
       style="opacity:1"
       fill="#0e0e0e"
       d="m 328.5,159.5 c 2.884,2.739 5.551,5.739 8,9 -0.847,1.345 -2.013,2.345 -3.5,3 -2.237,-2.147 -4.237,-4.48 -6,-7 -0.613,-1.995 -0.113,-3.662 1.5,-5 z"
       id="path26" />
  </g>
  <g
     id="g27"
     transform="translate(-56.5,-59.5)">
    <path
       style="opacity:0.749"
       fill="#5c5c5c"
       d="m 82.5,170.5 c 0.6174,0.111 1.1174,0.444 1.5,1 0.6667,7.667 0.6667,15.333 0,23 -0.2784,0.916 -0.7784,1.582 -1.5,2 0,-8.667 0,-17.333 0,-26 z"
       id="path27" />
  </g>
  <g
     id="g28"
     transform="translate(-56.5,-59.5)">
    <path
       style="opacity:1"
       fill="#11130e"
       d="m 321.5,233.5 c -0.535,7.347 -1.201,14.681 -2,22 -4.568,19.073 -14.902,34.24 -31,45.5 -38.913,21.889 -73.079,16.056 -102.5,-17.5 -15.497,-22.6 -18.831,-46.933 -10,-73 15.321,-33.637 41.487,-49.47 78.5,-47.5 39.969,6.801 62.302,30.301 67,70.5 z"
       id="path28" />
  </g>
  <g
     id="g29"
     transform="translate(-56.5,-59.5)">
    <path
       style="opacity:1"
       fill="#98c459"
       d="m 277.5,187.5 c 6.342,-0.166 12.675,0 19,0.5 5.611,6.278 10.444,13.112 14.5,20.5 1.15,2.254 1.484,4.587 1,7 -4.027,5.194 -7.86,10.527 -11.5,16 -8,1.333 -16,1.333 -24,0 -2.976,-4.144 -6.143,-8.144 -9.5,-12 -1.301,-1.865 -1.635,-3.865 -1,-6 3.573,-8.81 7.407,-17.477 11.5,-26 z"
       id="path29" />
  </g>
  <g
     id="g30"
     transform="translate(-56.5,-59.5)">
    <path
       style="opacity:1"
       fill="#98c459"
       d="m 196.5,187.5 c 6.922,-0.312 13.756,0.021 20.5,1 3.971,9.109 7.805,18.276 11.5,27.5 -3.265,5.853 -7.265,11.186 -12,16 -8.333,0.667 -16.667,0.667 -25,0 -3.805,-5.971 -7.805,-11.804 -12,-17.5 4.415,-9.838 10.081,-18.838 17,-27 z"
       id="path30" />
  </g>
  <g
     id="g31"
     transform="translate(-56.5,-59.5)">
    <path
       style="opacity:1"
       fill="#d3d4d1"
       d="m 267.5,170.5 c 8.521,1.925 15.854,5.925 22,12 -4.295,1.161 -8.629,1.328 -13,0.5 -3.387,-3.961 -6.387,-8.127 -9,-12.5 z"
       id="path31" />
  </g>
  <g
     id="g32"
     transform="translate(-56.5,-59.5)">
    <path
       style="opacity:1"
       fill="#d7d8d5"
       d="m 222.5,170.5 c 1.478,-0.262 2.811,0.071 4,1 -2.773,4.277 -6.107,8.11 -10,11.5 -4.371,0.828 -8.705,0.661 -13,-0.5 1.524,-2.358 3.524,-4.191 6,-5.5 4.425,-2.213 8.759,-4.379 13,-6.5 z"
       id="path32" />
  </g>
  <g
     id="g33"
     transform="translate(-56.5,-59.5)">
    <path
       style="opacity:1"
       fill="#97c359"
       d="m 234.5,167.5 c 8.386,-0.287 16.719,0.213 25,1.5 4.527,4.892 8.693,10.059 12.5,15.5 -3.212,9.781 -7.045,19.447 -11.5,29 -9.227,1.317 -18.393,1.317 -27.5,0 -4.113,-9.224 -7.946,-18.558 -11.5,-28 4.349,-6.012 8.682,-12.012 13,-18 z"
       id="path33" />
  </g>
  <g
     id="g34"
     transform="translate(-56.5,-59.5)">
    <path
       style="opacity:1"
       fill="#445829"
       d="m 231.5,218.5 c 10.006,-0.166 20.006,0 30,0.5 4.724,4.776 8.724,10.109 12,16 -3.862,9.558 -7.862,19.058 -12,28.5 -9.667,1.333 -19.333,1.333 -29,0 -4.196,-9.257 -8.196,-18.59 -12,-28 3.289,-5.947 6.956,-11.614 11,-17 z"
       id="path34" />
  </g>
  <g
     id="g35"
     transform="translate(-56.5,-59.5)">
    <path
       style="opacity:1"
       fill="#dddedb"
       d="m 313.5,220.5 c 1.25,0.077 2.083,0.744 2.5,2 1.454,8.286 1.787,16.619 1,25 -0.17,2.215 -0.837,4.215 -2,6 -4.336,-6.001 -8.169,-12.334 -11.5,-19 3.343,-4.696 6.676,-9.363 10,-14 z"
       id="path35" />
  </g>
  <g
     id="g36"
     transform="translate(-56.5,-59.5)">
    <path
       style="opacity:1"
       fill="#dcddda"
       d="m 177.5,221.5 c 0.996,-0.086 1.829,0.248 2.5,1 2.958,3.943 5.458,8.11 7.5,12.5 -2.504,6.172 -5.67,12.006 -9.5,17.5 -1.117,-1.449 -1.784,-3.116 -2,-5 -0.914,-8.801 -0.414,-17.468 1.5,-26 z"
       id="path36" />
  </g>
  <g
     id="g37"
     transform="translate(-56.5,-59.5)">
    <path
       style="opacity:1"
       fill="#e3e3e2"
       d="m 136.5,237.5 c 0.237,4.222 -0.096,8.389 -1,12.5 -2.056,3.301 -4.723,4.134 -8,2.5 -1.187,-1.034 -2.02,-2.367 -2.5,-4 -0.738,-4.21 -0.572,-8.376 0.5,-12.5 4.349,-4.765 8.015,-4.265 11,1.5 z"
       id="path37" />
  </g>
  <g
     id="g38"
     transform="translate(-56.5,-59.5)">
    <path
       style="opacity:1"
       fill="#e1e2e1"
       d="m 377.5,252.5 c 0,-1.667 0,-3.333 0,-5 -2.667,0 -5.333,0 -8,0 -0.478,-3.838 0.522,-7.171 3,-10 1.498,-2.831 3.831,-4.498 7,-5 -0.465,4.705 0.201,9.205 2,13.5 -1.291,2.371 -2.291,4.871 -3,7.5 -0.607,-0.124 -0.94,-0.457 -1,-1 z"
       id="path38" />
  </g>
  <g
     id="g39"
     transform="translate(-56.5,-59.5)">
    <path
       style="opacity:1"
       fill="#737671"
       d="m 132.5,238.5 c -1.107,-2.347 -2.774,-2.68 -5,-1 1.418,-1.808 3.418,-2.475 6,-2 0.237,1.291 -0.096,2.291 -1,3 z"
       id="path39" />
  </g>
  <g
     id="g40"
     transform="translate(-56.5,-59.5)">
    <path
       style="opacity:1"
       fill="#151613"
       d="m 121.5,236.5 c 0,2.333 0,4.667 0,7 -1.554,1.414 -2.888,3.081 -4,5 -1.799,1.288 -3.465,1.288 -5,0 3.312,-2.819 5.646,-6.319 7,-10.5 -0.382,-3.596 -2.382,-5.429 -6,-5.5 -4.987,0.645 -6.654,3.312 -5,8 0.676,-1.102 1.342,-2.102 2,-3 2,-1.333 4,-1.333 6,0 -1.931,4.033 -4.764,8.033 -8.5,12 -0.49,1.293 -0.657,2.627 -0.5,4 4,0 8,0 12,0 0,-1 0,-2 0,-3 0.06,-0.543 0.393,-0.876 1,-1 0.974,2.243 1.308,4.576 1,7 -5.044,0.327 -10.044,-0.006 -15,-1 -1.333,-2.333 -1.333,-4.667 0,-7 1.861,-1.028 3.195,-2.528 4,-4.5 -3.5,-0.498 -5.167,-2.498 -5,-6 0.182,-2.343 1.182,-4.176 3,-5.5 3.284,-1.157 6.618,-1.324 10,-0.5 1.383,1.271 2.383,2.771 3,4.5 z"
       id="path40" />
  </g>
  <g
     id="g41"
     transform="translate(-56.5,-59.5)">
    <path
       style="opacity:1"
       fill="#dadbd8"
       d="m 112.5,248.5 c -0.543,0.06 -0.876,0.393 -1,1 2.586,0.98 5.253,1.313 8,1 0,1 0,2 0,3 -4,0 -8,0 -12,0 -0.157,-1.373 0.01,-2.707 0.5,-4 3.736,-3.967 6.569,-7.967 8.5,-12 -0.47,-1.193 -1.47,-1.86 -3,-2 -1.53,0.14 -2.53,0.807 -3,2 -0.658,0.898 -1.324,1.898 -2,3 -1.654,-4.688 0.013,-7.355 5,-8 3.618,0.071 5.618,1.904 6,5.5 -1.354,4.181 -3.688,7.681 -7,10.5 z"
       id="path41" />
  </g>
  <g
     id="g42"
     transform="translate(-56.5,-59.5)">
    <path
       style="opacity:1"
       fill="#71736e"
       d="m 116.5,237.5 c -2,-1.333 -4,-1.333 -6,0 0.47,-1.193 1.47,-1.86 3,-2 1.53,0.14 2.53,0.807 3,2 z"
       id="path42" />
  </g>
  <g
     id="g43"
     transform="translate(-56.5,-59.5)">
    <path
       style="opacity:1"
       fill="#2c3223"
       d="m 137.5,234.5 c -0.904,0.709 -1.237,1.709 -1,3 -2.985,-5.765 -6.651,-6.265 -11,-1.5 -1.072,4.124 -1.238,8.29 -0.5,12.5 0.48,1.633 1.313,2.966 2.5,4 -1,0 -2,0 -3,0 -1.454,-2.853 -2.454,-5.853 -3,-9 0,-2.333 0,-4.667 0,-7 3.089,-4.621 7.423,-6.121 13,-4.5 1.442,0.377 2.442,1.21 3,2.5 z"
       id="path43" />
  </g>
  <g
     id="g44"
     transform="translate(-56.5,-59.5)">
    <path
       style="opacity:1"
       fill="#191918"
       d="m 132.5,238.5 c -0.904,0.709 -1.237,1.709 -1,3 -2.124,0.531 -3.624,1.865 -4.5,4 -0.801,-2.867 -0.634,-5.534 0.5,-8 2.226,-1.68 3.893,-1.347 5,1 z"
       id="path44" />
  </g>
  <g
     id="g45"
     transform="translate(-56.5,-59.5)">
    <path
       style="opacity:1"
       fill="#151614"
       d="m 366.5,236.5 c 0,2.333 0,4.667 0,7 -1.279,1.623 -2.613,3.29 -4,5 -1.799,1.288 -3.465,1.288 -5,0 3.312,-2.819 5.646,-6.319 7,-10.5 -0.382,-3.596 -2.382,-5.429 -6,-5.5 -4.987,0.645 -6.654,3.312 -5,8 0.676,-1.102 1.342,-2.102 2,-3 2,-1.333 4,-1.333 6,0 -1.931,4.033 -4.764,8.033 -8.5,12 -0.49,1.293 -0.657,2.627 -0.5,4 4,0 8,0 12,0 0,-1 0,-2 0,-3 0.06,-0.543 0.393,-0.876 1,-1 0.974,2.243 1.308,4.576 1,7 -4.679,0.166 -9.345,-10e-4 -14,-0.5 -2.206,-2.209 -2.54,-4.709 -1,-7.5 1.861,-1.028 3.195,-2.528 4,-4.5 -3.5,-0.498 -5.167,-2.498 -5,-6 0.182,-2.343 1.182,-4.176 3,-5.5 3.284,-1.157 6.618,-1.324 10,-0.5 1.383,1.271 2.383,2.771 3,4.5 z"
       id="path45" />
  </g>
  <g
     id="g46"
     transform="translate(-56.5,-59.5)">
    <path
       style="opacity:1"
       fill="#dadbd8"
       d="m 357.5,248.5 c -0.543,0.06 -0.876,0.393 -1,1 2.586,0.98 5.253,1.313 8,1 0,1 0,2 0,3 -4,0 -8,0 -12,0 -0.157,-1.373 0.01,-2.707 0.5,-4 3.736,-3.967 6.569,-7.967 8.5,-12 -0.47,-1.193 -1.47,-1.86 -3,-2 -1.53,0.14 -2.53,0.807 -3,2 -0.658,0.898 -1.324,1.898 -2,3 -1.654,-4.688 0.013,-7.355 5,-8 3.618,0.071 5.618,1.904 6,5.5 -1.354,4.181 -3.688,7.681 -7,10.5 z"
       id="path46" />
  </g>
  <g
     id="g47"
     transform="translate(-56.5,-59.5)">
    <path
       style="opacity:1"
       fill="#70726e"
       d="m 361.5,237.5 c -2,-1.333 -4,-1.333 -6,0 0.47,-1.193 1.47,-1.86 3,-2 1.53,0.14 2.53,0.807 3,2 z"
       id="path47" />
  </g>
  <g
     id="g48"
     transform="translate(-56.5,-59.5)">
    <path
       style="opacity:1"
       fill="#151615"
       d="m 137.5,234.5 c 1.616,7.135 1.283,14.135 -1,21 -2.938,1.075 -5.938,1.241 -9,0.5 -1.926,-0.422 -2.926,-1.589 -3,-3.5 1,0 2,0 3,0 3.277,1.634 5.944,0.801 8,-2.5 0.904,-4.111 1.237,-8.278 1,-12.5 -0.237,-1.291 0.096,-2.291 1,-3 z"
       id="path48" />
  </g>
  <g
     id="g49"
     transform="translate(-56.5,-59.5)">
    <path
       style="opacity:1"
       fill="#97c359"
       d="m 191.5,237.5 c 8.585,-0.317 17.085,0.017 25.5,1 3.836,9.005 7.67,18.005 11.5,27 -3.159,5.642 -6.826,10.975 -11,16 -8.647,1.165 -17.314,1.332 -26,0.5 -5.429,-6.69 -9.429,-14.19 -12,-22.5 4.025,-7.387 8.025,-14.721 12,-22 z"
       id="path49" />
  </g>
  <g
     id="g50"
     transform="translate(-56.5,-59.5)">
    <path
       style="opacity:1"
       fill="#97c359"
       d="m 276.5,237.5 c 8.028,-0.331 16.028,0.002 24,1 5.033,7.738 9.199,15.738 12.5,24 -2.938,7.044 -6.771,13.544 -11.5,19.5 -8.353,0.832 -16.687,0.665 -25,-0.5 -3.692,-4.525 -7.192,-9.192 -10.5,-14 -0.667,-1.333 -0.667,-2.667 0,-4 3.796,-8.585 7.296,-17.252 10.5,-26 z"
       id="path50" />
  </g>
  <g
     id="g51"
     transform="translate(-56.5,-59.5)">
    <path
       style="opacity:1"
       fill="#212120"
       d="m 374.5,238.5 c 1.808,1.418 2.475,3.418 2,6 -1.699,0.16 -3.366,-0.006 -5,-0.5 1.258,-1.741 2.258,-3.574 3,-5.5 z"
       id="path51" />
  </g>
  <g
     id="g52"
     transform="translate(-56.5,-59.5)">
    <path
       style="opacity:1"
       fill="#353b2c"
       d="m 366.5,236.5 c 0.79,1.109 1.29,2.442 1.5,4 0.72,-1.556 1.887,-2.556 3.5,-3 0.333,0 0.667,0 1,0 -2.478,2.829 -3.478,6.162 -3,10 -0.667,0 -1,0.333 -1,1 -0.667,-1.667 -1.333,-3.333 -2,-5 0,-2.333 0,-4.667 0,-7 z"
       id="path52" />
  </g>
  <g
     id="g53"
     transform="translate(-56.5,-59.5)">
    <path
       style="opacity:1"
       fill="#121311"
       d="m 131.5,241.5 c 1.844,1.779 2.51,4.112 2,7 0,0.333 0,0.667 0,1 -2.281,0.423 -3.948,-0.244 -5,-2 1.294,-1.828 2.294,-3.828 3,-6 z"
       id="path53" />
  </g>
  <g
     id="g54"
     transform="translate(-56.5,-59.5)">
    <path
       style="opacity:1"
       fill="#666863"
       d="m 132.5,238.5 c 2,3.274 2.333,6.608 1,10 0.51,-2.888 -0.156,-5.221 -2,-7 -0.237,-1.291 0.096,-2.291 1,-3 z"
       id="path54" />
  </g>
  <g
     id="g55"
     transform="translate(-56.5,-59.5)">
    <path
       style="opacity:1"
       fill="#3f4d2b"
       d="m 321.5,233.5 c 0.658,1.293 0.992,2.793 1,4.5 -0.317,6.093 -1.317,11.926 -3,17.5 0.799,-7.319 1.465,-14.653 2,-22 z"
       id="path55" />
  </g>
  <g
     id="g56"
     transform="translate(-56.5,-59.5)">
    <path
       style="opacity:1"
       fill="#171816"
       d="m 368.5,248.5 c 0,-0.667 0.333,-1 1,-1 2.107,0.968 4.441,1.302 7,1 -0.268,1.599 0.066,2.932 1,4 0.06,0.543 0.393,0.876 1,1 0.709,-2.629 1.709,-5.129 3,-7.5 -1.799,-4.295 -2.465,-8.795 -2,-13.5 -3.169,0.502 -5.502,2.169 -7,5 -0.333,0 -0.667,0 -1,0 1.353,-5.17 4.52,-6.837 9.5,-5 0.275,4.931 1.109,9.764 2.5,14.5 -1.194,3.076 -1.861,6.243 -2,9.5 -4.661,0.668 -6.661,-1.332 -6,-6 -2.888,0.51 -5.221,-0.156 -7,-2 z"
       id="path56" />
  </g>
  <g
     id="g57"
     transform="translate(-56.5,-59.5)">
    <path
       style="opacity:1"
       fill="#71736f"
       d="m 369.5,247.5 c 2.667,0 5.333,0 8,0 0,1.667 0,3.333 0,5 -0.934,-1.068 -1.268,-2.401 -1,-4 -2.559,0.302 -4.893,-0.032 -7,-1 z"
       id="path57" />
  </g>
  <g
     id="g58"
     transform="translate(-56.5,-59.5)">
    <path
       style="opacity:1"
       fill="#6b6d69"
       d="m 128.5,247.5 c 1.052,1.756 2.719,2.423 5,2 -1.765,0.961 -3.765,1.295 -6,1 -0.237,-1.291 0.096,-2.291 1,-3 z"
       id="path58" />
  </g>
  <g
     id="g59"
     transform="translate(-56.5,-59.5)">
    <path
       style="opacity:1"
       fill="#f5f6f4"
       d="m 92.5,268.5 c -2.9725,12.893 -5.4725,25.893 -7.5,39 -5.3123,50.23 15.188,85.063 61.5,104.5 21.968,5.88 43.968,11.546 66,17 10.973,4.484 21.307,9.984 31,16.5 10.576,-7.122 21.909,-12.956 34,-17.5 22.553,-5.221 44.886,-11.221 67,-18 44.112,-19.86 63.278,-54.027 57.5,-102.5 -2.174,-12.69 -4.341,-25.357 -6.5,-38 3.667,0 7.333,0 11,0 3.206,13.863 5.706,27.863 7.5,42 2.045,58.955 -25.121,97.122 -81.5,114.5 -18.672,4.668 -37.338,9.335 -56,14 -11.697,5.508 -22.697,12.008 -33,19.5 -9.634,-7.158 -19.967,-13.325 -31,-18.5 -19.243,-5.311 -38.576,-10.311 -58,-15 C 98.1107,408.614 70.944,370.447 73,311.5 c 1.9225,-14.444 4.4225,-28.778 7.5,-43 4,0 8,0 12,0 z"
       id="path59" />
  </g>
  <g
     id="g60"
     transform="translate(-56.5,-59.5)">
    <path
       style="opacity:1"
       fill="#98c459"
       d="m 92.5,268.5 c 20.333,0 40.667,0 61,0 3.042,5.757 5.875,11.757 8.5,18 19.367,31.022 47.367,47.355 84,49 44.586,-2.537 75.086,-24.537 91.5,-66 19.333,0 38.667,0 58,0 2.159,12.643 4.326,25.31 6.5,38 5.778,48.473 -13.388,82.64 -57.5,102.5 -22.114,6.779 -44.447,12.779 -67,18 -12.091,4.544 -23.424,10.378 -34,17.5 -9.693,-6.516 -20.027,-12.016 -31,-16.5 -22.032,-5.454 -44.032,-11.12 -66,-17 C 100.188,392.563 79.6877,357.73 85,307.5 c 2.0275,-13.107 4.5275,-26.107 7.5,-39 z"
       id="path60" />
  </g>
  <g
     id="g61"
     transform="translate(-56.5,-59.5)">
    <path
       style="opacity:1"
       fill="#98c559"
       d="m 232.5,269.5 c 9.672,-0.166 19.339,0 29,0.5 4.161,4.662 7.827,9.662 11,15 -2.826,7.144 -5.493,14.31 -8,21.5 -6.144,0.806 -12.311,1.473 -18.5,2 -5.721,-0.03 -11.221,-1.03 -16.5,-3 -2.864,-6.593 -5.531,-13.259 -8,-20 3.169,-5.67 6.836,-11.004 11,-16 z"
       id="path61" />
  </g>
  <g
     id="g62"
     transform="translate(-56.5,-59.5)">
    <path
       style="opacity:1"
       fill="#dedfdc"
       d="m 196.5,286.5 c 6.675,-0.166 13.342,0 20,0.5 3.219,5.494 5.553,11.327 7,17.5 -7.286,-1.809 -13.952,-4.976 -20,-9.5 -2.947,-2.436 -5.28,-5.269 -7,-8.5 z"
       id="path62" />
  </g>
  <g
     id="g63"
     transform="translate(-56.5,-59.5)">
    <path
       style="opacity:1"
       fill="#dcdedb"
       d="m 277.5,286.5 c 6.368,-0.33 12.702,0.004 19,1 -7.023,8.178 -15.69,13.845 -26,17 1.229,-6.454 3.563,-12.454 7,-18 z"
       id="path63" />
  </g>
  <g
     id="g64"
     transform="translate(-56.5,-59.5)">
    <path
       style="opacity:0.749"
       fill="#535353"
       d="m 61.5,316.5 c 0.7389,-0.131 1.4056,0.036 2,0.5 -1.3333,3.333 -1.3333,6.667 0,10 -0.5944,0.464 -1.2611,0.631 -2,0.5 -1.3333,-3.667 -1.3333,-7.333 0,-11 z"
       id="path64" />
  </g>
  <g
     id="g65"
     transform="translate(-56.5,-59.5)">
    <path
       style="opacity:1"
       fill="#0c0d09"
       d="m 206.5,346.5 c 0.221,2.779 -0.112,5.446 -1,8 -0.786,5.31 -3.286,6.31 -7.5,3 -0.707,1.581 -1.54,3.081 -2.5,4.5 1.5,1.115 3.167,1.948 5,2.5 1.394,5.007 0.561,9.674 -2.5,14 -3.76,-1.796 -7.593,-3.462 -11.5,-5 -0.692,-0.525 -1.192,-1.192 -1.5,-2 -1.804,-6.294 -0.637,-12.127 3.5,-17.5 -1.256,-0.417 -1.923,-1.25 -2,-2.5 0.078,-2.752 0.245,-5.418 0.5,-8 -1.095,1.193 -1.928,2.527 -2.5,4 -3.943,5.625 -7.943,11.292 -12,17 -0.865,1.083 -1.865,1.249 -3,0.5 -4.833,-3.5 -9.667,-7 -14.5,-10.5 -0.667,-4.333 -0.667,-8.667 0,-13 4.333,-6 8.667,-12 13,-18 -1.748,-3.783 -4.414,-7.116 -8,-10 -1.23,0.775 -1.563,1.775 -1,3 2.167,2.167 4.333,4.333 6.5,6.5 -2.066,4.238 -5.066,7.738 -9,10.5 -2.623,-3.125 -5.456,-6.125 -8.5,-9 -3.74,3.451 -7.573,6.785 -11.5,10 -5.025,-2.231 -6.358,-5.564 -4,-10 10.03,-9.199 20.196,-18.199 30.5,-27 6.501,5.319 12.334,11.319 17.5,18 -1.748,4.581 -4.748,8.081 -9,10.5 2.853,2.133 3.353,4.967 1.5,8.5 -3.662,3.324 -5.662,7.324 -6,12 1.808,0.388 3.475,0.388 5,0 3.091,-4.514 6.425,-8.847 10,-13 3.035,1.701 5.368,4.035 7,7 1.32,-0.299 2.82,-0.466 4.5,-0.5 1.429,-2.69 2.429,-5.523 3,-8.5 3,0.667 6,1.333 9,2 0.193,3.513 -0.474,6.846 -2,10 0.368,1.675 1.368,2.675 3,3 z"
       id="path65" />
  </g>
  <g
     id="g66"
     transform="translate(-56.5,-59.5)">
    <path
       style="opacity:1"
       fill="#dfe1dd"
       d="m 162.5,299.5 c 5.605,4.61 10.605,9.944 15,16 -1.416,1.639 -3.083,2.473 -5,2.5 -3.869,-3.534 -7.369,-7.367 -10.5,-11.5 -2.5,2.5 -5,5 -7.5,7.5 2.85,2.682 5.516,5.516 8,8.5 -1.082,2.284 -2.748,3.45 -5,3.5 -2.618,-2.739 -5.118,-5.573 -7.5,-8.5 -3.81,3.9 -7.81,7.566 -12,11 -1.167,-1.167 -2.333,-2.333 -3.5,-3.5 9.23,-8.735 18.563,-17.235 28,-25.5 z"
       id="path66" />
  </g>
  <g
     id="g67"
     transform="translate(-56.5,-59.5)">
    <path
       style="opacity:0.749"
       fill="#535353"
       d="m 425.5,316.5 c 1.333,3.667 1.333,7.333 0,11 -0.739,0.131 -1.406,-0.036 -2,-0.5 1.333,-3.333 1.333,-6.667 0,-10 0.594,-0.464 1.261,-0.631 2,-0.5 z"
       id="path67" />
  </g>
  <g
     id="g68"
     transform="translate(-56.5,-59.5)">
    <path
       style="opacity:1"
       fill="#0c0d09"
       d="m 307.5,342.5 c -1.293,-1.796 -2.793,-3.463 -4.5,-5 -0.667,-1 -0.667,-2 0,-3 4.801,-3.799 9.301,-7.966 13.5,-12.5 2.614,0.532 5.28,0.865 8,1 -1.045,-1.616 -2.045,-3.283 -3,-5 3.333,-4.667 6.667,-9.333 10,-14 3,-0.667 6,-0.667 9,0 6.881,4.601 13.548,9.434 20,14.5 -3.876,5.92 -7.876,11.754 -12,17.5 -3,0.667 -6,0.667 -9,0 -2.433,-1.632 -4.933,-3.132 -7.5,-4.5 -2.323,1.652 -4.656,3.319 -7,5 -1.333,-1.333 -2.667,-1.333 -4,0 0.379,1.575 0.212,3.075 -0.5,4.5 4.035,3.7 7.702,7.7 11,12 -2.167,1.833 -4.333,3.667 -6.5,5.5 -1.067,-0.691 -2.234,-1.191 -3.5,-1.5 -4.897,-4.729 -9.564,-9.562 -14,-14.5 z"
       id="path68" />
  </g>
  <g
     id="g69"
     transform="translate(-56.5,-59.5)">
    <path
       style="opacity:1"
       fill="#dfe0dd"
       d="m 331.5,305.5 c 2,1.126 4,1.293 6,0.5 5.553,3.936 10.887,8.103 16,12.5 -3.312,5.304 -6.979,10.304 -11,15 -6.954,0.064 -10.954,-3.602 -12,-11 2.457,-3.414 4.791,-6.914 7,-10.5 -1.887,-0.163 -3.387,0.671 -4.5,2.5 -1.523,3.055 -3.523,5.722 -6,8 -2.244,-0.367 -2.744,-1.367 -1.5,-3 -0.525,-0.692 -1.192,-1.192 -2,-1.5 3.062,-3.969 5.729,-8.136 8,-12.5 z"
       id="path69" />
  </g>
  <g
     id="g70"
     transform="translate(-56.5,-59.5)">
    <path
       style="opacity:1"
       fill="#0e0e0e"
       d="m 341.5,316.5 c 2.135,-0.353 3.468,0.48 4,2.5 -1.463,3.451 -3.629,6.285 -6.5,8.5 -1.434,-0.43 -2.601,-1.264 -3.5,-2.5 2.22,-2.713 4.22,-5.546 6,-8.5 z"
       id="path70" />
  </g>
  <g
     id="g71"
     transform="translate(-56.5,-59.5)">
    <path
       style="opacity:1"
       fill="#dddfda"
       d="m 316.5,324.5 c 3.347,0.283 6.013,1.783 8,4.5 -1.167,1.167 -2.333,2.333 -3.5,3.5 -0.667,-0.667 -1.333,-1.333 -2,-2 -3.377,2.274 -5.211,5.107 -5.5,8.5 4.035,3.7 7.702,7.7 11,12 -1.167,1.167 -2.333,2.333 -3.5,3.5 -5.5,-6.167 -11,-12.333 -16.5,-18.5 1.167,-1.167 2.333,-2.333 3.5,-3.5 0.667,0.667 1.333,1.333 2,2 0,-1.333 0,-2.667 0,-4 2.063,-2.234 4.229,-4.234 6.5,-6 z"
       id="path71" />
  </g>
  <g
     id="g72"
     transform="translate(-56.5,-59.5)">
    <path
       style="opacity:1"
       fill="#dfe1dd"
       d="m 167.5,326.5 c 1.811,0.072 3.144,0.905 4,2.5 -2.369,3.902 -4.869,7.735 -7.5,11.5 -0.979,3.73 0.187,6.564 3.5,8.5 2.053,0.325 4.053,-0.009 6,-1 2.28,-3.947 4.947,-7.613 8,-11 1.796,-0.436 3.129,0.231 4,2 -4.49,6.652 -9.157,13.152 -14,19.5 -4.969,-2.978 -9.635,-6.311 -14,-10 0.245,-2.245 0.245,-4.578 0,-7 3.359,-5.018 6.693,-10.018 10,-15 z"
       id="path72" />
  </g>
  <g
     id="g73"
     transform="translate(-56.5,-59.5)">
    <path
       style="opacity:1"
       fill="#68873d"
       d="m 325.5,325.5 c 0.397,-1.025 1.063,-1.192 2,-0.5 1.829,1.113 2.663,2.613 2.5,4.5 -1.371,-1.541 -2.871,-2.875 -4.5,-4 z"
       id="path73" />
  </g>
  <g
     id="g74"
     transform="translate(-56.5,-59.5)">
    <path
       style="opacity:1"
       fill="#dedfdb"
       d="m 198.5,333.5 c 1.811,0.072 3.144,0.905 4,2.5 -1.143,3.101 -2.476,6.101 -4,9 5.486,0.42 6.819,2.753 4,7 -2.067,0.536 -3.901,0.036 -5.5,-1.5 -1.962,3.757 -3.795,7.59 -5.5,11.5 2.797,1.233 5.463,2.733 8,4.5 -0.748,1.832 -1.748,3.499 -3,5 -2.55,-1.442 -5.216,-2.608 -8,-3.5 -0.959,-1.707 -1.625,-3.541 -2,-5.5 1.763,-4.121 3.43,-8.288 5,-12.5 -3.831,-2.551 -3.998,-5.384 -0.5,-8.5 1,0.667 2,1.333 3,2 1.24,-3.478 2.74,-6.811 4.5,-10 z"
       id="path74" />
  </g>
  <g
     id="g75"
     transform="translate(-56.5,-59.5)">
    <path
       style="opacity:1"
       fill="#11120e"
       d="m 264.5,335.5 c 2.544,-0.396 4.711,0.271 6.5,2 3.061,8.519 5.728,17.186 8,26 5.927,3.144 8.427,7.978 7.5,14.5 -4.921,1.308 -9.755,2.808 -14.5,4.5 -5.332,-4.744 -6.165,-9.91 -2.5,-15.5 -1.481,-7.457 -4.315,-14.29 -8.5,-20.5 -0.532,-2.764 -1.366,-5.43 -2.5,-8 2.094,-1.018 4.094,-2.018 6,-3 z"
       id="path75" />
  </g>
  <g
     id="g76"
     transform="translate(-56.5,-59.5)">
    <path
       style="opacity:1"
       fill="#0f100d"
       d="m 307.5,342.5 c 1.307,2.614 2.64,5.28 4,8 -0.333,0.667 -0.667,1.333 -1,2 1.793,2.751 3.459,5.584 5,8.5 -0.589,2.514 -1.922,4.514 -4,6 -3.161,1.413 -6.161,3.08 -9,5 -4.545,-0.178 -8.712,-1.678 -12.5,-4.5 -2.833,-5 -5.667,-10 -8.5,-15 0.525,-0.692 1.192,-1.192 2,-1.5 -0.333,-1.667 -0.667,-3.333 -1,-5 4.603,-3.218 9.436,-6.052 14.5,-8.5 3.613,1.558 7.113,3.225 10.5,5 z"
       id="path76" />
  </g>
  <g
     id="g77"
     transform="translate(-56.5,-59.5)">
    <path
       style="opacity:1"
       fill="#dee0dc"
       d="m 264.5,337.5 c 1.624,-0.14 2.79,0.527 3.5,2 2.832,9.328 5.666,18.661 8.5,28 1.216,0.596 2.549,0.763 4,0.5 1.26,1.814 1.26,3.647 0,5.5 -3.184,0.922 -6.351,1.922 -9.5,3 -0.772,-0.145 -1.439,-0.478 -2,-1 -0.494,-1.634 -0.66,-3.301 -0.5,-5 1,0 2,0 3,0 -1.858,-8.059 -4.024,-16.059 -6.5,-24 -0.71,-1.473 -1.876,-2.14 -3.5,-2 0.214,-1.644 -0.12,-3.144 -1,-4.5 1.358,-0.934 2.692,-1.768 4,-2.5 z"
       id="path77" />
  </g>
  <g
     id="g78"
     transform="translate(-56.5,-59.5)">
    <path
       style="opacity:1"
       fill="#e1e3df"
       d="m 294.5,340.5 c 4.773,0.134 8.44,2.134 11,6 -0.593,1.882 -1.26,3.715 -2,5.5 -3.667,2.167 -7.333,4.333 -11,6.5 1.693,0.728 3.193,1.728 4.5,3 3.256,-2.379 6.756,-4.379 10.5,-6 0.333,0.5 0.667,1 1,1.5 -1.073,1.416 -1.073,2.75 0,4 -3.265,2.549 -6.765,4.716 -10.5,6.5 -2.673,-0.512 -5.339,-1.846 -8,-4 -2.087,-3.173 -3.921,-6.506 -5.5,-10 -0.172,-2.65 0.495,-5.316 2,-8 2.731,-1.692 5.398,-3.358 8,-5 z"
       id="path78" />
  </g>
  <g
     id="g79"
     transform="translate(-56.5,-59.5)">
    <path
       style="opacity:1"
       fill="#485d2a"
       d="m 206.5,346.5 c 0.667,0 1.333,0 2,0 -0.176,3.227 -0.843,6.227 -2,9 0,-0.667 -0.333,-1 -1,-1 0.888,-2.554 1.221,-5.221 1,-8 z"
       id="path79" />
  </g>
  <g
     id="g80"
     transform="translate(-56.5,-59.5)">
    <path
       style="opacity:1"
       fill="#191919"
       d="m 297.5,345.5 c 2.049,0.206 2.383,1.039 1,2.5 -2.262,1.047 -4.429,2.213 -6.5,3.5 -0.5,-0.333 -1,-0.667 -1.5,-1 2.577,-1.443 4.91,-3.11 7,-5 z"
       id="path80" />
  </g>
  <g
     id="g81"
     transform="translate(-56.5,-59.5)">
    <path
       style="opacity:1"
       fill="#566f32"
       d="m 186.5,351.5 c -0.667,-1.333 -1.333,-2.667 -2,-4 0.572,-1.473 1.405,-2.807 2.5,-4 -0.255,2.582 -0.422,5.248 -0.5,8 z"
       id="path81" />
  </g>
  <g
     id="g82"
     transform="translate(-56.5,-59.5)">
    <path
       style="opacity:1"
       fill="#0e100c"
       d="m 235.5,355.5 c 2.528,-1.435 5.195,-2.435 8,-3 3.398,-0.32 6.732,0.013 10,1 5.369,5.114 7.702,11.447 7,19 -0.288,4.407 -1.622,8.407 -4,12 -5.685,0.303 -11.352,0.47 -17,0.5 -3.645,-3.453 -6.145,-7.62 -7.5,-12.5 -0.068,4.694 -2.234,7.694 -6.5,9 0,1 0,2 0,3 -6.933,-0.96 -13.766,-2.294 -20.5,-4 -0.704,-1.778 -1.204,-3.612 -1.5,-5.5 1.273,-6.468 2.273,-12.968 3,-19.5 1.157,-2.773 1.824,-5.773 2,-9 0.667,-3.667 1.333,-7.333 2,-11 2.9,-0.22 5.567,0.446 8,2 0.794,4.285 0.794,8.618 0,13 3.339,0.39 6.673,0.89 10,1.5 1.208,2.25 2.541,4.417 4,6.5 0.641,-1.493 1.641,-2.493 3,-3 z"
       id="path82" />
  </g>
  <g
     id="g83"
     transform="translate(-56.5,-59.5)">
    <path
       style="opacity:1"
       fill="#dadcd7"
       d="m 211.5,337.5 c 1.667,0 3.333,0 5,0 -1.053,5.305 -1.553,10.639 -1.5,16 0.839,-1.124 2.006,-1.791 3.5,-2 2.64,0.595 5.307,0.928 8,1 1.398,2.981 2.398,6.148 3,9.5 -0.5,3.5 -1,7 -1.5,10.5 -2.231,2.739 -5.064,4.405 -8.5,5 -4.422,-0.404 -8.756,-1.237 -13,-2.5 -0.559,-0.725 -0.892,-1.558 -1,-2.5 2.258,-11.625 4.258,-23.292 6,-35 z"
       id="path83" />
  </g>
  <g
     id="g84"
     transform="translate(-56.5,-59.5)">
    <path
       style="opacity:1"
       fill="#3d4f23"
       d="m 243.5,352.5 c -2.805,0.565 -5.472,1.565 -8,3 0,-1 0,-2 0,-3 2.667,0 5.333,0 8,0 z"
       id="path84" />
  </g>
  <g
     id="g85"
     transform="translate(-56.5,-59.5)">
    <path
       style="opacity:1"
       fill="#dee0db"
       d="m 238.5,354.5 c 12.259,-2.247 18.259,2.92 18,15.5 -1.487,3.137 -2.821,6.304 -4,9.5 -14.504,1.659 -20.338,-4.674 -17.5,-19 1.394,-1.888 2.56,-3.888 3.5,-6 z"
       id="path85" />
  </g>
  <g
     id="g86"
     transform="translate(-56.5,-59.5)">
    <path
       style="opacity:1"
       fill="#0e0e0d"
       d="m 215.5,357.5 c 2.627,0.592 5.294,0.925 8,1 2.59,10.917 -1.243,14.583 -11.5,11 0.201,-3.277 0.368,-6.611 0.5,-10 1.679,0.215 2.679,-0.452 3,-2 z"
       id="path86" />
  </g>
  <g
     id="g87"
     transform="translate(-56.5,-59.5)">
    <path
       style="opacity:1"
       fill="#0e0e0e"
       d="m 240.5,360.5 c 3.847,-0.119 7.514,0.547 11,2 0.119,3.847 -0.547,7.514 -2,11 -3.288,0.427 -6.288,-0.24 -9,-2 -1.086,-3.655 -1.086,-7.322 0,-11 z"
       id="path87" />
  </g>
  <g
     id="g88"
     transform="translate(-56.5,-59.5)">
    <path
       style="opacity:0.749"
       fill="#252525"
       d="m 200.5,448.5 c -20.452,-4.111 -40.452,-9.444 -60,-16 19.289,4.655 38.623,9.322 58,14 1.213,0.247 1.88,0.914 2,2 z"
       id="path88" />
  </g>
</svg>
